<svg width="24" height="24" viewBox="0 0 24 24" fill="none" xmlns="http://www.w3.org/2000/svg">
<g clip-path="url(#clip0_165_16874)">
<path d="M9.2929 5.63665L3.6361 11.2935C3.2455 11.684 3.2455 12.3172 3.6361 12.7077L9.2929 18.3646C9.6834 18.7551 10.3166 18.7551 10.7071 18.3646C11.0977 17.9741 11.0977 17.3409 10.7071 16.9504L6.7574 13.0006H20C20.5523 13.0006 21 12.5529 21 12.0006C21 11.4483 20.5523 11.0006 20 11.0006H6.7574L10.7071 7.05086C11.0977 6.66033 11.0977 6.02717 10.7071 5.63665C10.3166 5.24612 9.6834 5.24612 9.2929 5.63665Z" fill="#092042"/>
</g>
<defs>
<clipPath id="clip0_165_16874">
<rect width="24" height="24" fill="white" transform="matrix(-1 0 0 1 24 0)"/>
</clipPath>
</defs>
</svg>
